<svg xmlns="http://www.w3.org/2000/svg" viewBox="0 0 512 512" width="512" height="512">
  <defs>
    <style>
      .bg { fill: #ffffff; }
      .brand { fill: #D70F64; }
    </style>
  </defs>
  <rect class="bg" width="512" height="512" rx="100" ry="100"/>
  
  <!-- Stylized D -->
  <path class="brand" d="M190,140 L280,140 C350,140 400,190 400,260 C400,330 350,380 280,380 L170,380 C160,380 150,370 150,360 L150,310 L190,310 L190,340 L280,340 C330,340 360,310 360,260 C360,210 330,180 280,180 L190,180 Z" />
  
  <!-- Speed lines on the left -->
  <rect class="brand" x="120" y="240" width="40" height="15" rx="5" />
  <rect class="brand" x="100" y="270" width="50" height="15" rx="5" />

  <!-- Bowl inside D -->
  <path class="brand" d="M210,230 L320,230 C320,270 290,290 265,290 C240,290 210,270 210,230 Z" />
  
  <!-- Leaves and Fork -->
  <path class="brand" d="M230,200 C240,190 260,190 260,210 C250,220 230,220 230,200 Z" />
  <path class="brand" d="M245,210 C255,190 270,200 265,220 C255,230 240,220 245,210 Z" />
  
  <!-- Fork -->
  <path class="brand" d="M275,200 L285,180 L290,185 L280,205 Z" />
  <circle class="brand" cx="295" cy="215" r="5" />
  
  <!-- Text -->
  <text x="256" y="440" class="brand" font-family="Arial, sans-serif" font-weight="bold" font-size="60" text-anchor="middle" letter-spacing="2">DELIVERY</text>
</svg>
